<svg width="302" height="32" viewBox="0 0 302 32" fill="none" xmlns="http://www.w3.org/2000/svg">
<g clip-path="url(#clip0_2_104)">
<path d="M150.635 9.12977C148.9 8.42904 146.4 8.58137 145.379 10.0235C144.182 11.7093 145.459 13.9943 146.992 15.284C148.941 16.9089 151.885 17.5791 154.681 17.8432C157.476 18.1072 160.582 18.0361 163.485 17.7416C175.663 16.4925 186.43 11.496 198.394 9.57661C205.034 8.51028 211.809 8.70324 218.382 9.94221C221.729 10.5718 224.982 11.4351 228.141 12.4912C231.3 13.5474 234.203 14.7762 237.281 15.8426C240.359 16.9089 243.37 17.6502 246.664 17.9752C250.172 18.3205 253.748 18.2189 257.269 17.9752C261.1 17.701 264.891 17.1018 268.614 16.391C273.265 15.5074 277.862 14.3903 282.271 12.9584C286.035 11.7397 290.202 10.2469 292.971 7.8908C293.536 7.41349 293.993 6.89556 294.477 6.37763C294.813 6.02218 294.033 5.68705 293.71 6.03234C292.756 7.05805 291.224 7.91111 289.893 8.63215C288.24 9.53599 286.465 10.2977 284.651 10.9781C280.564 12.5217 276.223 13.6794 271.84 14.6341C267.929 15.4871 263.963 16.2082 259.944 16.6753C254.5 17.3151 248.653 17.5385 243.29 16.462C240.131 15.8324 237.187 14.7356 234.284 13.6388C231.38 12.542 228.705 11.5569 225.802 10.7039C219.834 8.96728 213.449 7.87049 207.037 7.8908C195.114 7.93142 184.414 12.2678 173.324 14.9997C167.894 16.3402 162.235 17.2948 156.482 17.0308C153.592 16.8987 150.379 16.4722 148.202 14.9184C147.207 14.2075 146.494 13.2935 146.212 12.2881C145.997 11.5163 145.957 10.5414 146.777 9.97267C147.771 9.27194 149.089 9.18055 150.298 9.59692C150.715 9.7391 151.078 9.29226 150.661 9.12977H150.635Z" fill="#BBA085"/>
<path d="M204.805 8.84552C209.066 7.46437 213.26 5.93089 217.736 4.96612C222.212 4.00134 226.931 3.7373 231.662 4.2857C232.2 4.34663 232.442 3.76777 231.891 3.65606C227.334 2.72175 222.28 3.27015 217.804 4.24508C213.327 5.22 208.784 6.80426 204.536 8.50023C204.227 8.6221 204.496 8.94707 204.805 8.85568V8.84552Z" fill="#BBA085"/>
<path d="M232.052 4.19431C232.415 3.82871 232.885 3.52405 233.383 3.27016C233.638 3.13814 233.907 3.01627 234.189 2.92487C234.472 2.83348 234.767 2.70145 235.05 2.58974C235.291 2.49834 235.17 2.22414 234.915 2.21399C234.552 2.21399 234.203 2.24446 233.867 2.35617C233.531 2.46788 233.195 2.57959 232.899 2.73192C232.294 3.03659 231.77 3.44281 231.353 3.88965C231.232 4.02167 231.326 4.22478 231.501 4.30602C231.702 4.39742 231.918 4.32633 232.052 4.19431Z" fill="#BBA085"/>
<path d="M231.434 3.97095C231.246 4.47873 231.246 5.00681 231.421 5.51459C231.595 6.02236 231.972 6.59107 232.644 6.78403C232.899 6.85512 233.168 6.63169 233.087 6.4489C232.993 6.23563 232.832 6.05283 232.698 5.84972C232.657 5.79894 232.63 5.74817 232.59 5.69739C232.577 5.67708 232.563 5.65677 232.55 5.6263C232.509 5.56537 232.577 5.67708 232.55 5.61614C232.496 5.51459 232.442 5.40288 232.402 5.30132C232.362 5.19977 232.335 5.09821 232.308 4.9865C232.308 4.96619 232.308 4.93573 232.308 4.97635C232.308 4.95604 232.308 4.92557 232.308 4.90526C232.308 4.84433 232.308 4.79355 232.294 4.73261C232.294 4.63106 232.294 4.51935 232.294 4.41779C232.294 4.39748 232.294 4.36702 232.294 4.34671C232.294 4.38733 232.294 4.34671 232.294 4.33655C232.308 4.27562 232.321 4.21468 232.348 4.15375C232.415 3.97095 232.268 3.76784 232.012 3.71706C231.757 3.66629 231.501 3.778 231.434 3.97095Z" fill="#BBA085"/>
<path d="M231.904 4.26538C232.321 4.49896 232.765 4.68176 233.248 4.82394C233.477 4.89502 233.692 4.93565 233.934 4.96611C234.082 4.98642 234.23 5.00673 234.378 5.00673C234.499 5.00673 234.633 4.99658 234.754 4.98642C234.902 4.97627 235.036 4.90518 235.063 4.78331C235.077 4.6716 234.996 4.55989 234.835 4.52943C234.606 4.47865 234.378 4.41772 234.163 4.36694C233.947 4.31616 233.719 4.26538 233.504 4.20445C233.45 4.19429 233.41 4.17398 233.356 4.16383C233.302 4.15367 233.302 4.14352 233.343 4.16383C233.316 4.16383 233.289 4.14352 233.262 4.13336C233.154 4.09274 233.047 4.05212 232.939 4.0115C232.724 3.93025 232.536 3.8287 232.334 3.71699C232.146 3.61543 231.85 3.68652 231.743 3.8287C231.622 4.00134 231.703 4.16383 231.891 4.27554L231.904 4.26538Z" fill="#BBA085"/>
<path d="M232.456 4.21462C232.927 4.06229 233.424 3.96073 233.935 3.88964C234.177 3.85918 234.392 3.83887 234.661 3.81856C234.957 3.79825 235.199 3.74747 235.494 3.68653C235.83 3.6256 235.803 3.27016 235.494 3.18891C235.199 3.11783 234.916 3.0772 234.607 3.08736C234.298 3.09752 233.989 3.13814 233.693 3.18891C233.115 3.28031 232.564 3.43265 232.026 3.6256C231.811 3.70685 231.757 3.93027 231.865 4.07244C231.999 4.24509 232.241 4.2654 232.456 4.19431V4.21462Z" fill="#BBA085"/>
<path d="M231.862 4.33643C232.05 4.71218 232.279 5.07778 232.588 5.41291C232.736 5.58556 232.911 5.74805 233.085 5.90038C233.26 6.05271 233.462 6.17458 233.663 6.29644C233.825 6.398 234.067 6.42846 234.228 6.29644C234.376 6.17458 234.389 5.99178 234.228 5.86991C234.053 5.73789 233.892 5.60587 233.731 5.46369C233.65 5.3926 233.569 5.32152 233.489 5.25043C233.448 5.21996 233.475 5.23012 233.489 5.25043C233.462 5.23012 233.448 5.2098 233.421 5.18949C233.381 5.14887 233.354 5.1184 233.314 5.07778C233.179 4.93561 233.058 4.78327 232.951 4.62079C232.897 4.53954 232.843 4.4583 232.79 4.37705C232.776 4.35674 232.763 4.32628 232.749 4.30596C232.722 4.26534 232.749 4.28565 232.749 4.30596C232.722 4.25519 232.696 4.21456 232.682 4.16379C232.601 4.01145 232.386 3.87943 232.158 3.94037C231.956 3.99114 231.782 4.16379 231.862 4.33643Z" fill="#BBA085"/>
<path d="M234.094 2.89438C235.156 2.87407 236.205 3.06703 237.132 3.45294C238.059 3.83885 238.758 4.41771 239.431 5.02704C239.592 5.16922 239.834 4.98642 239.753 4.84424C239.296 4.07242 238.328 3.4834 237.361 3.1178C236.393 2.75221 235.237 2.5491 234.108 2.59987C233.852 2.61003 233.852 2.90454 234.108 2.90454L234.094 2.89438Z" fill="#BBA085"/>
<path d="M232.71 6.39803C233.946 6.91596 235.411 7.01751 236.769 6.77378C237.468 6.65191 238.113 6.42849 238.691 6.11367C238.906 6.00196 239.242 5.83947 239.296 5.62621C239.336 5.47388 239.162 5.28092 238.987 5.20983L238.853 5.38248C239.39 5.57543 239.847 5.16921 239.578 4.7833C239.471 4.62081 239.148 4.76299 239.256 4.92548C239.363 5.08797 239.162 5.23014 238.96 5.18952C238.785 5.15905 238.718 5.35201 238.893 5.38248C239.121 5.4231 238.718 5.67699 238.691 5.68714C238.584 5.74807 238.463 5.79885 238.342 5.85978C238.1 5.9715 237.831 6.07305 237.576 6.15429C237.092 6.30663 236.621 6.43865 236.097 6.50974C234.995 6.67222 233.852 6.58083 232.844 6.20507C232.696 6.14414 232.562 6.31678 232.71 6.37772V6.39803Z" fill="#BBA085"/>
<path d="M201.875 8.79471C203.031 10.9985 205.034 12.9382 207.077 14.7052C208.193 15.6598 209.376 16.5738 210.653 17.4066C211.715 18.0971 212.857 18.7674 214.175 19.1736C214.645 19.3158 214.901 18.7674 214.511 18.5846C209.457 16.1981 205.236 12.5827 202.373 8.65253C202.225 8.45958 201.768 8.5916 201.875 8.80486V8.79471Z" fill="#BBA085"/>
<path d="M213.891 18.7776C213.851 19.3057 213.918 19.854 214.133 20.3517C214.348 20.8493 214.684 21.3571 215.262 21.7024C215.504 21.8445 215.8 21.6719 215.679 21.4586C215.437 21.0219 215.141 20.6056 214.966 20.1587C214.792 19.7119 214.684 19.2549 214.711 18.7776C214.711 18.6151 214.523 18.4729 214.308 18.4729C214.079 18.4729 213.918 18.6151 213.904 18.7776H213.891Z" fill="#BBA085"/>
<path d="M214.873 19.0213C214.94 18.9197 215.007 18.8283 215.075 18.7369C215.115 18.6861 215.155 18.6455 215.196 18.6049C215.223 18.5744 215.249 18.5541 215.196 18.6049C215.223 18.5846 215.249 18.5541 215.276 18.5338C215.37 18.4525 215.464 18.3815 215.559 18.3104C215.612 18.2697 215.666 18.2393 215.72 18.1987C215.68 18.219 215.787 18.1479 215.72 18.1987C215.747 18.1783 215.787 18.1682 215.814 18.1479C215.922 18.0869 216.042 18.0362 216.163 17.9854C216.231 17.9549 216.284 17.9346 216.352 17.9041C216.379 17.894 216.405 17.8838 216.446 17.8737C216.459 17.8737 216.58 17.8331 216.473 17.8737C216.567 17.8432 216.647 17.8229 216.741 17.7924C216.782 17.7823 216.849 17.762 216.768 17.7823C216.809 17.7721 216.836 17.762 216.876 17.7518C217.037 17.7112 217.185 17.6604 217.319 17.5995C217.588 17.4776 217.535 17.173 217.239 17.1019C216.916 17.0206 216.513 17.0714 216.19 17.1628C215.868 17.2542 215.572 17.3659 215.29 17.5284C214.752 17.8432 214.295 18.2393 214.026 18.7064C213.932 18.8791 213.946 19.1025 214.201 19.1939C214.416 19.2751 214.739 19.2447 214.846 19.0619L214.873 19.0213Z" fill="#BBA085"/>
<path d="M214.578 19.3361C214.819 19.3361 214.994 19.3564 215.196 19.3869C215.424 19.4174 215.666 19.4681 215.881 19.5189C216.096 19.5697 216.312 19.6306 216.527 19.7017C216.553 19.7017 216.553 19.7017 216.527 19.7017C216.553 19.7017 216.58 19.722 216.607 19.7322C216.674 19.7525 216.755 19.783 216.822 19.8033C216.93 19.8337 217.051 19.8642 217.158 19.8947C217.279 19.9353 217.441 19.8642 217.508 19.783C217.575 19.6916 217.562 19.5697 217.454 19.4986C217.064 19.2041 216.621 19.0111 216.096 18.8791C215.572 18.7471 215.075 18.6963 214.551 18.6862C214.322 18.6862 214.107 18.8385 214.12 19.0111C214.12 19.1939 214.309 19.326 214.551 19.3361H214.578Z" fill="#BBA085"/>
<path d="M214.242 19.2752C214.497 19.6814 214.82 20.047 215.183 20.4024C215.357 20.5649 215.546 20.7173 215.734 20.8594C215.855 20.9407 216.003 21.0321 216.137 21.093C216.272 21.154 216.433 21.1946 216.581 21.2352C216.85 21.3164 217.132 21.0321 216.957 20.8594C216.782 20.6868 216.621 20.504 216.406 20.3517C216.218 20.2095 216.03 20.0673 215.855 19.915C215.774 19.8439 215.68 19.7626 215.599 19.6916C215.653 19.7423 215.599 19.6916 215.586 19.6713C215.559 19.6509 215.546 19.6306 215.519 19.6103C215.478 19.5697 215.438 19.5291 215.398 19.4783C215.237 19.3057 215.102 19.133 214.968 18.9502C214.86 18.7979 214.564 18.7369 214.376 18.8283C214.161 18.9299 214.121 19.1127 214.215 19.2752H214.242Z" fill="#BBA085"/>
<path d="M215.144 19.1534C215.937 18.7979 216.864 18.605 217.765 18.5339C217.98 18.5136 218.168 18.412 218.168 18.2292C218.168 18.0667 217.98 17.9347 217.765 17.9246C216.689 17.9246 215.627 18.1683 214.713 18.5948C214.512 18.6862 214.445 18.8792 214.565 19.0315C214.686 19.1838 214.942 19.2346 215.144 19.1432V19.1534Z" fill="#BBA085"/>
<path d="M214.954 21.022C215.801 21.6008 216.836 21.9969 217.952 22.1696C219.068 22.3422 220.264 22.332 221.272 21.9461C221.487 21.8649 221.326 21.6313 221.111 21.6618C220.089 21.8141 219.081 21.936 218.033 21.7938C216.984 21.6516 216.03 21.3165 215.237 20.8087C215.048 20.6868 214.766 20.89 214.954 21.022Z" fill="#BBA085"/>
<path d="M216.984 17.5996C218.059 17.7824 219.014 18.2394 219.74 18.869C220.103 19.1838 220.371 19.5291 220.64 19.8846C220.775 20.0674 220.896 20.2603 220.99 20.4634C221.03 20.5548 221.07 20.6361 221.111 20.7275C221.111 20.7579 221.245 21.1845 221.044 21.1134L220.909 21.286C221.138 21.3673 221.151 21.5805 220.909 21.6516C220.681 21.7227 220.882 21.9664 221.097 21.8954C221.608 21.7329 221.568 21.1845 221.017 21.0931C220.842 21.0626 220.775 21.2556 220.949 21.286C221.151 21.3266 221.474 21.2454 221.554 21.0931C221.689 20.8697 221.527 20.5447 221.433 20.3314C221.218 19.8338 220.909 19.3768 220.465 18.9706C219.619 18.1683 218.422 17.5691 217.065 17.3965C216.903 17.3762 216.823 17.559 216.997 17.5894L216.984 17.5996Z" fill="#BBA085"/>
<path d="M177.612 14.3497C174.83 16.9394 171.752 19.3665 168.445 21.5703C165.138 23.774 161.375 25.7239 157.732 27.7144C157.463 27.8667 157.692 28.1815 158.001 28.0596C161.953 26.5262 165.515 24.4037 168.835 22.1796C172.155 19.9555 175.314 17.4167 178.096 14.7255C178.365 14.4614 177.895 14.0857 177.599 14.3497H177.612Z" fill="#BBA085"/>
<path d="M174.911 16.5535C170.005 17.6706 165.569 19.6509 161.697 22.1796C159.735 23.4592 157.947 24.8911 156.334 26.4348C154.829 27.887 153.189 29.5017 152.449 31.279C152.355 31.5125 152.772 31.6039 152.947 31.4313C154.439 29.9283 155.608 28.2628 157.181 26.7902C158.754 25.3177 160.434 23.9975 162.276 22.7686C165.999 20.2907 170.368 18.2596 175.086 17.0714C175.502 16.9597 175.328 16.4621 174.897 16.5636L174.911 16.5535Z" fill="#BBA085"/>
<path d="M175.38 16.6855C174.95 17.0004 174.761 17.4573 174.506 17.8534C174.251 18.2495 173.995 18.6354 173.726 19.0213C173.162 19.854 172.53 20.6766 171.845 21.4485C170.312 23.1647 168.403 24.5459 166.172 25.7341C164.062 26.8512 161.897 27.948 159.666 28.9229C158.55 29.4104 157.421 29.8572 156.238 30.2431C155.593 30.4564 154.948 30.6494 154.276 30.8118C153.698 30.954 153.039 31.0353 152.528 31.2891C152.273 31.4212 152.394 31.6751 152.676 31.6954C153.859 31.7969 155.365 31.2181 156.427 30.8829C157.65 30.497 158.833 30.0502 159.989 29.5627C162.408 28.537 164.761 27.3691 167.019 26.1403C169.277 24.9115 170.998 23.6217 172.463 21.9562C173.202 21.1133 173.861 20.2298 174.452 19.326C174.923 18.6049 175.756 17.6198 175.783 16.7972C175.783 16.6449 175.528 16.5637 175.38 16.6754V16.6855Z" fill="#BBA085"/>
<path d="M168.216 3.96071C170.528 6.10353 173.338 7.85027 176.51 9.23142C178.043 9.90169 179.656 10.4602 181.309 10.9274C182.142 11.161 182.989 11.3641 183.849 11.5367C184.71 11.7094 185.664 11.9429 186.578 11.9429C187.022 11.9429 187.076 11.4859 186.686 11.3742C185.852 11.1508 184.938 11.1 184.078 10.9375C183.218 10.7751 182.438 10.6126 181.645 10.3993C179.938 9.96262 178.298 9.41422 176.725 8.75411C173.634 7.46436 170.878 5.71762 168.539 3.71698C168.351 3.55449 168.042 3.78807 168.216 3.96071Z" fill="#BBA085"/>
<path d="M185.099 11.6179C180.354 11.5265 175.139 10.3891 171.227 8.34784C169.278 7.33229 167.746 5.92068 166.213 4.57C165.393 3.84895 164.587 3.13807 163.767 2.41703C163.027 1.76708 162.248 0.863236 161.253 0.436705C161.105 0.375772 160.89 0.477327 160.957 0.609348C161.374 1.4421 162.449 2.1733 163.202 2.84356C164.049 3.59507 164.896 4.34657 165.729 5.09808C167.329 6.53001 168.955 7.97209 171.052 9.00795C173.149 10.0438 175.475 10.7649 177.814 11.3133C178.983 11.5874 180.179 11.821 181.403 11.9429C182.706 12.0749 183.862 12.0241 185.153 11.882C185.368 11.8616 185.301 11.6179 185.099 11.6078V11.6179Z" fill="#BBA085"/>
<path d="M161.121 0.660147C166.39 1.65539 171.713 2.62016 176.471 4.67157C178.622 5.60588 180.625 6.74329 182.305 8.12444C183.784 9.33295 185.141 10.968 187.319 11.5062C187.547 11.5672 187.762 11.3031 187.561 11.1914C185.625 10.0235 184.227 8.56113 182.493 7.24091C180.759 5.9207 178.797 4.86453 176.673 3.981C171.928 2.01083 166.524 1.0359 161.215 0.365637C160.959 0.33517 160.852 0.609369 161.107 0.660147H161.121Z" fill="#BBA085"/>
<path d="M201.284 8.42909C196.687 9.60713 192.614 11.9632 189.616 14.8372C186.619 17.7112 184.817 21.1641 181.121 23.6319C180.946 23.7436 181.161 23.9365 181.349 23.8655C185.463 22.1593 187.17 18.4627 189.845 15.7411C192.856 12.6741 196.955 10.4602 201.512 8.85562C201.821 8.74391 201.606 8.358 201.284 8.43924V8.42909Z" fill="#BBA085"/>
<path d="M196.807 10.0032C191.739 10.9984 187.451 13.456 184.078 16.4214C182.182 18.0869 180.529 19.8946 178.983 21.7429C177.437 23.5912 176.187 25.5512 174.198 27.0847C173.956 27.2675 174.265 27.5722 174.561 27.4402C176.711 26.4754 177.827 24.424 179.104 22.8702C180.677 20.9609 182.317 19.0822 184.225 17.3456C187.599 14.2685 191.834 11.6077 196.995 10.5211C197.439 10.4297 197.251 9.92191 196.807 10.0032Z" fill="#BBA085"/>
<path d="M174.492 27.5824C183.888 26.7801 192.195 22.1492 196.348 15.7715C197.531 13.9537 198.66 11.8718 198.513 9.81023C198.486 9.41417 197.679 9.41417 197.693 9.81023C197.787 12.0749 196.268 14.4716 194.83 16.4113C193.472 18.2291 191.765 19.8946 189.762 21.3469C185.528 24.4138 180.151 26.3231 174.411 27.1152C174.062 27.166 174.129 27.623 174.492 27.5925V27.5824Z" fill="#BBA085"/>
<path d="M216.687 9.34308C218.071 9.77977 218.905 10.7547 219.63 11.6992C220.356 12.6436 221.015 13.6186 221.647 14.6036C222.883 16.5129 224.066 18.4627 225.599 20.2501C228.327 23.4288 232.642 26.3129 237.965 26.0286C238.53 25.9981 238.543 25.3482 237.965 25.3583C232.199 25.4599 228.045 22.1086 225.357 18.6252C223.932 16.7769 222.776 14.8169 221.418 12.9381C220.316 11.4148 219.12 9.55635 216.848 8.88609C216.458 8.77437 216.31 9.23137 216.673 9.35324L216.687 9.34308Z" fill="#BBA085"/>
<path d="M218.717 9.75943C222.831 11.689 227.051 13.5474 230.533 16.1269C232.294 17.437 233.866 18.8791 235.063 20.5141C235.708 21.3875 236.246 22.3015 236.662 23.2561C237.079 24.2107 237.227 25.1247 237.63 26.0285C237.778 26.3535 238.45 26.3129 238.45 25.9473C238.45 24.9927 237.98 23.967 237.576 23.0631C237.173 22.1593 236.636 21.2148 236.017 20.3415C234.834 18.676 233.275 17.1628 231.46 15.8527C227.818 13.2123 223.395 11.2218 218.986 9.39383C218.664 9.26181 218.381 9.61725 218.704 9.76958L218.717 9.75943Z" fill="#BBA085"/>
<path d="M219.229 10.0438C221.756 12.0038 224.095 14.1263 226.367 16.2488C227.536 17.3355 228.665 18.4424 229.767 19.5697C230.87 20.6969 231.784 21.7633 232.94 22.7788C233.168 22.9718 233.531 22.728 233.397 22.5148C232.577 21.2758 231.448 20.1587 230.359 19.0416C229.27 17.9245 228.208 16.9089 227.066 15.8832C224.713 13.7404 222.132 11.7804 219.484 9.85085C219.31 9.72899 219.068 9.92194 219.229 10.0438Z" fill="#BBA085"/>
<path d="M224.268 10.7039C229.685 11.689 235.129 10.5008 240.425 9.64773C243.194 9.20089 245.99 8.87591 248.839 8.91653C250.278 8.93684 251.703 9.04855 253.114 9.2212C254.404 9.38368 255.762 9.80006 257.079 9.77975C257.375 9.77975 257.442 9.49539 257.227 9.37353C256.206 8.83529 254.74 8.68296 253.531 8.52047C252.24 8.34782 250.936 8.24627 249.633 8.20565C246.877 8.1244 244.148 8.37829 241.46 8.79467C235.841 9.65788 230.209 11.0695 224.415 10.3281C224.106 10.2875 223.972 10.6328 224.281 10.6836L224.268 10.7039Z" fill="#BBA085"/>
<path d="M226.245 11.0493C230.909 13.0601 236.232 14.2787 241.636 14.1569C244.378 14.0959 247.053 13.6491 249.621 12.9078C250.898 12.532 252.148 12.1055 253.371 11.6383C254.594 11.1712 255.965 10.6837 257.135 10.0845C257.525 9.88141 257.296 9.29239 256.785 9.45488C254.352 10.2267 252.107 11.3133 249.634 12.0648C247.161 12.8164 244.499 13.314 241.797 13.4155C236.488 13.6085 231.259 12.4304 226.487 10.7446C226.232 10.6532 226.003 10.9274 226.259 11.0391L226.245 11.0493Z" fill="#BBA085"/>
<path d="M225.734 11.2422C230.237 12.5319 235.224 12.7756 239.996 12.471C244.768 12.1663 249.674 11.425 254.002 9.95242C254.338 9.84071 254.097 9.4548 253.76 9.52589C251.489 9.96257 249.244 10.511 246.959 10.9172C244.674 11.3234 242.241 11.6484 239.835 11.821C235.103 12.1562 230.452 11.821 225.868 10.8359C225.519 10.7649 225.398 11.1406 225.721 11.232L225.734 11.2422Z" fill="#BBA085"/>
<path d="M262.795 16.9801C269.409 17.2949 276.277 16.9801 282.501 15.1216C287.703 13.5678 292.435 11.1204 296.239 8.02292C298.376 6.28633 300.392 4.31616 301.656 2.12257C301.831 1.81791 301.293 1.56402 301.051 1.85853C299.572 3.63574 298.121 5.39265 296.279 6.96675C294.437 8.54085 292.408 9.96263 290.176 11.1813C285.593 13.6897 280.283 15.3755 274.705 16.0864C270.766 16.584 266.774 16.6043 262.795 16.5942C262.473 16.5942 262.486 16.9496 262.795 16.9699V16.9801Z" fill="#BBA085"/>
<path d="M264.757 16.5637C269.664 14.9998 273.965 12.6437 278.428 10.4907C282.891 8.33778 288.025 6.36761 293.107 4.74273C294.558 4.27558 296.023 3.83889 297.502 3.40221C298.981 2.96552 300.432 2.6507 301.777 2.12261C302.207 1.94997 301.898 1.47266 301.454 1.5539C300.11 1.78748 298.806 2.23432 297.529 2.61008C296.252 2.98583 294.935 3.3819 293.644 3.78812C291.131 4.58025 288.644 5.42315 286.211 6.3473C281.345 8.18545 276.882 10.4603 272.379 12.7554C269.865 14.035 267.285 15.2435 264.542 16.2286C264.3 16.32 264.475 16.645 264.731 16.5637H264.757Z" fill="#BBA085"/>
<path d="M151.736 9.59698C152.973 9.1806 154.331 9.28216 155.325 10.0134C156.092 10.5821 156.038 11.557 155.836 12.2882C155.204 14.5326 152.664 15.9137 149.895 16.523C144.411 17.7214 138.187 16.9902 132.783 15.9137C121.626 13.6795 111.33 9.20091 99.7565 8.12443C93.4387 7.53541 87.0135 8.13458 80.9243 9.49542C77.8058 10.1962 74.7813 11.0898 71.8375 12.1257C68.8938 13.1616 66.2726 14.2685 63.4095 15.213C60.2909 16.2488 57.038 16.9089 53.6372 17.1019C50.559 17.2745 47.4404 17.1628 44.3757 16.9089C40.6657 16.6144 36.9826 15.9949 33.3802 15.2942C28.9443 14.431 24.5623 13.385 20.3549 12.014C16.645 10.8055 13.0828 9.34309 10.0181 7.32214C9.42663 6.93623 8.79486 6.5097 8.33783 6.02224C8.01523 5.6668 7.2356 6.00193 7.57164 6.36753C8.63356 7.5151 9.72235 8.47987 11.201 9.33293C12.9215 10.3282 14.7765 11.1508 16.7122 11.8718C20.9598 13.4865 25.4897 14.6849 30.0466 15.6801C34.1329 16.5738 38.2999 17.305 42.5207 17.7417C48.3679 18.3612 54.5781 18.5135 60.2775 17.1527C63.4498 16.4012 66.4204 15.2434 69.3777 14.1162C72.4828 12.9381 75.6416 11.8413 78.9349 10.9883C85.4005 9.31262 92.2693 8.45956 99.0978 9.00796C111.397 9.99304 122.258 15.0403 134.195 17.1222C137.085 17.63 140.042 17.955 143.013 17.9956C145.983 18.0362 148.981 17.8839 151.669 17.0206C154.169 16.2184 156.36 14.6747 156.925 12.603C157.355 11.0594 156.871 9.41418 154.734 8.83531C153.591 8.53065 152.435 8.69314 151.387 9.10951C150.97 9.28216 151.333 9.71884 151.75 9.57667L151.736 9.59698Z" fill="#BBA085"/>
<path d="M97.4698 8.48999C93.2221 6.79402 88.8266 5.24023 84.2026 4.23483C79.5786 3.22944 74.6722 2.71151 70.1154 3.64581C69.5643 3.75752 69.8063 4.33639 70.3439 4.27545C75.0755 3.72706 79.6592 3.96063 84.2698 4.95587C88.8804 5.95111 92.9264 7.45413 97.2009 8.83527C97.5101 8.93683 97.7924 8.61185 97.4698 8.47983V8.48999Z" fill="#BBA085"/>
<path d="M70.64 3.87942C70.2233 3.43258 69.699 3.02636 69.0941 2.7217C68.7984 2.56936 68.4758 2.45765 68.1398 2.3561C67.8037 2.25454 67.4408 2.20377 67.0779 2.21392C66.8225 2.21392 66.7149 2.48812 66.9434 2.58968C67.2257 2.70139 67.4945 2.8131 67.7768 2.91465C68.0591 3.01621 68.3414 3.13807 68.6102 3.27009C69.1076 3.52398 69.5646 3.82865 69.941 4.19425C70.0754 4.32627 70.2905 4.39736 70.4921 4.30596C70.6668 4.22471 70.7609 4.0216 70.64 3.88958V3.87942Z" fill="#BBA085"/>
<path d="M69.6592 4.16375C69.6726 4.21453 69.6995 4.27546 69.713 4.32624C69.713 4.32624 69.7264 4.39733 69.713 4.36686C69.6995 4.33639 69.713 4.40748 69.713 4.40748C69.7264 4.50904 69.7264 4.62075 69.7264 4.7223C69.7264 4.78323 69.7264 4.83401 69.7264 4.89495C69.7264 4.91526 69.7264 4.94572 69.7264 4.96603C69.7264 5.02697 69.7264 4.91526 69.7264 4.97619C69.6995 5.0879 69.6726 5.19961 69.6323 5.30117C69.592 5.40272 69.5382 5.50428 69.4979 5.60583C69.4979 5.62614 69.471 5.65661 69.4979 5.61599C69.4979 5.6363 69.471 5.65661 69.4576 5.68707C69.4307 5.73785 69.3903 5.78863 69.35 5.83941C69.2022 6.03236 69.0409 6.23547 68.9468 6.44874C68.8661 6.63154 69.1349 6.85496 69.3903 6.78387C70.0624 6.58076 70.4388 6.01205 70.6136 5.51443C70.7883 5.01681 70.7883 4.46841 70.6001 3.97079C70.5329 3.788 70.2641 3.66613 70.0221 3.71691C69.7802 3.76768 69.6323 3.97079 69.6861 4.15359L69.6592 4.16375Z" fill="#BBA085"/>
<path d="M69.659 3.69667C69.4708 3.80838 69.2692 3.89978 69.0541 3.99118C68.9466 4.0318 68.839 4.07242 68.7315 4.11304C68.7046 4.11304 68.6777 4.13336 68.6509 4.14351C68.6912 4.13336 68.6777 4.14351 68.6374 4.14351C68.5836 4.15367 68.5433 4.17398 68.4896 4.18413C68.2745 4.24507 68.0594 4.29584 67.8309 4.34662C67.6024 4.3974 67.3739 4.45833 67.1588 4.50911C67.0109 4.53958 66.9168 4.65129 66.9303 4.763C66.9572 4.88486 67.0782 4.95595 67.2395 4.96611C67.5083 4.98642 67.7637 4.98642 68.0325 4.95595C68.2745 4.92549 68.5164 4.88486 68.7449 4.81377C69.2289 4.6716 69.6859 4.4888 70.0891 4.25522C70.2639 4.15367 70.3849 3.97087 70.237 3.80838C70.116 3.67636 69.8472 3.58496 69.6456 3.69667H69.659Z" fill="#BBA085"/>
<path d="M69.9956 3.64587C69.4579 3.45291 68.9068 3.30058 68.3288 3.20918C68.0331 3.1584 67.7239 3.11778 67.4147 3.10762C67.1056 3.09747 66.8233 3.13809 66.5276 3.20918C66.2184 3.28027 66.1915 3.63571 66.5276 3.7068C66.8233 3.76773 67.0653 3.80835 67.361 3.83882C67.6298 3.85913 67.8449 3.86929 68.0868 3.90991C68.5842 3.981 69.095 4.08255 69.5655 4.23488C69.7805 4.30597 70.0359 4.28566 70.1569 4.11302C70.2644 3.97084 70.2107 3.73726 69.9956 3.66618V3.64587Z" fill="#BBA085"/>
<path d="M69.3099 4.16377C69.3099 4.16377 69.2696 4.24502 69.2427 4.2958C69.2158 4.34657 69.283 4.22471 69.2427 4.31611C69.2427 4.33642 69.2158 4.35673 69.2158 4.36689C69.1621 4.44813 69.1083 4.52937 69.0545 4.61062C68.947 4.77311 68.8126 4.92544 68.6782 5.07777C68.6513 5.10824 68.611 5.14886 68.5841 5.17933C68.5706 5.19964 68.5437 5.21995 68.5169 5.24026C68.4765 5.28088 68.5572 5.20979 68.5169 5.24026C68.4362 5.31135 68.369 5.38244 68.2883 5.45352C68.127 5.5957 67.9657 5.73788 67.7776 5.8699C67.6297 5.98161 67.6162 6.18472 67.7776 6.29643C67.9523 6.4183 68.1674 6.39799 68.3421 6.29643C68.5437 6.17457 68.7454 6.0527 68.9067 5.91052C69.0949 5.74803 69.2562 5.58555 69.4175 5.4129C69.7132 5.07777 69.9551 4.71217 70.1433 4.33642C70.224 4.17393 70.0627 3.98098 69.8476 3.94035C69.6057 3.89973 69.404 3.99113 69.3234 4.16377H69.3099Z" fill="#BBA085"/>
<path d="M67.8991 2.58975C66.7699 2.53897 65.6543 2.72177 64.6461 3.10768C63.638 3.49359 62.697 4.06229 62.2534 4.83411C62.1728 4.97629 62.4147 5.16924 62.5761 5.01691C63.2481 4.40758 63.9337 3.82872 64.8746 3.44281C65.8156 3.0569 66.8506 2.85379 67.9125 2.88425C68.1679 2.88425 68.1679 2.5999 67.9125 2.57959L67.8991 2.58975Z" fill="#BBA085"/>
<path d="M69.1621 6.22541C68.154 6.59101 67.0114 6.68241 65.9092 6.53007C65.3984 6.45898 64.9145 6.32696 64.4306 6.17463C64.1617 6.09339 63.9063 5.99183 63.6644 5.88012C63.5434 5.82934 63.4359 5.76841 63.3149 5.70748C63.288 5.69732 62.8847 5.43328 63.1133 5.40281C63.288 5.37235 63.2073 5.17939 63.046 5.20986C62.831 5.24032 62.6428 5.09815 62.7503 4.94581C62.8579 4.79348 62.5352 4.64115 62.4277 4.80364C62.1589 5.18955 62.6159 5.59577 63.1536 5.40281L63.0192 5.23017C62.8444 5.30126 62.6697 5.49421 62.71 5.64654C62.7503 5.84965 63.0729 6.00199 63.2611 6.10354C63.8526 6.42852 64.5112 6.66209 65.2371 6.79412C66.6082 7.03785 68.0599 6.93629 69.2965 6.41836C69.4444 6.35743 69.31 6.18479 69.1621 6.24572V6.22541Z" fill="#BBA085"/>
<path d="M99.638 8.64239C96.7749 12.5827 92.5541 16.1981 87.5 18.5745C87.1101 18.7573 87.3655 19.3158 87.836 19.1635C89.1264 18.7776 90.2421 18.1175 91.2906 17.4472C92.5945 16.6043 93.8042 15.67 94.9334 14.7052C96.9765 12.9382 98.9794 10.9985 100.135 8.79473C100.243 8.58146 99.7859 8.43928 99.638 8.64239Z" fill="#BBA085"/>
<path d="M87.2998 18.7776C87.3267 19.2549 87.2192 19.7119 87.0444 20.1587C86.8697 20.6056 86.574 21.0321 86.332 21.4586C86.211 21.6719 86.5068 21.8445 86.7487 21.7024C87.3133 21.3571 87.6493 20.8696 87.8644 20.3517C88.0795 19.8337 88.1601 19.2955 88.1063 18.7776C88.1063 18.6151 87.9316 18.4729 87.7031 18.4729C87.488 18.4729 87.2864 18.6151 87.2998 18.7776Z" fill="#BBA085"/>
<path d="M87.9441 18.6558C87.6753 18.1784 87.2317 17.7824 86.6806 17.4777C86.4118 17.3254 86.116 17.2137 85.8069 17.1223C85.4977 17.0309 85.0676 16.9801 84.745 17.0613C84.4492 17.1324 84.3955 17.4371 84.6643 17.559C84.7987 17.63 84.96 17.6707 85.1079 17.7113C85.1482 17.7214 85.1885 17.7316 85.2154 17.7418C85.1482 17.7214 85.1885 17.7316 85.2154 17.7418C85.3095 17.7722 85.4036 17.8027 85.4977 17.8332C85.4305 17.8128 85.4574 17.823 85.4977 17.8332C85.5246 17.8433 85.5515 17.8535 85.5918 17.8636C85.659 17.8839 85.7262 17.9144 85.78 17.9449C85.901 17.9956 86.0354 18.0566 86.1429 18.1175C86.1698 18.1277 86.1967 18.148 86.2236 18.1581C86.3311 18.2191 86.1429 18.1074 86.2505 18.1683C86.3042 18.1988 86.358 18.2292 86.3983 18.2698C86.5058 18.3409 86.5999 18.4222 86.694 18.5034C86.7209 18.5237 86.7344 18.544 86.7612 18.5644C86.7209 18.5136 86.8016 18.5948 86.7612 18.5644C86.8016 18.6151 86.8553 18.6659 86.8957 18.7167C86.9763 18.8081 87.0435 18.9096 87.0973 19.001C87.2048 19.1737 87.5409 19.2245 87.7425 19.1331C87.9845 19.0213 88.0113 18.8284 87.9172 18.6456L87.9441 18.6558Z" fill="#BBA085"/>
<path d="M87.4336 18.6862C86.9094 18.6963 86.3851 18.7572 85.8878 18.8791C85.3635 19.001 84.9065 19.2041 84.5301 19.4986C84.436 19.5697 84.4092 19.6916 84.4764 19.783C84.5436 19.8642 84.7049 19.9353 84.8258 19.8947C84.9334 19.8642 85.0409 19.8337 85.1619 19.8033C85.2425 19.783 85.3098 19.7626 85.377 19.7322C85.377 19.7322 85.4979 19.6916 85.4442 19.7119C85.6593 19.6408 85.8878 19.5798 86.1163 19.5291C86.3448 19.4783 86.5599 19.4275 86.7884 19.397C86.8421 19.397 86.8959 19.3869 86.9497 19.3767C87.0034 19.3767 87.0169 19.3767 86.9766 19.3767C87.0034 19.3767 87.0438 19.3767 87.0706 19.3767C87.1916 19.3767 87.3126 19.3564 87.4336 19.3564C87.6621 19.3564 87.8772 19.2142 87.8637 19.0314C87.8503 18.8486 87.6755 18.6963 87.4336 18.7065V18.6862Z" fill="#BBA085"/>
<path d="M87.0045 18.9401C86.8701 19.1229 86.7357 19.3057 86.5744 19.4682C86.534 19.5088 86.5072 19.5494 86.4668 19.5799C86.4399 19.6002 86.4265 19.6205 86.3996 19.6408C86.3996 19.6408 86.3324 19.7119 86.3593 19.6814C86.3862 19.651 86.319 19.7119 86.319 19.722C86.2921 19.7424 86.2786 19.7627 86.2518 19.783C86.2114 19.8236 86.1577 19.8642 86.1173 19.9048C85.9426 20.0572 85.7544 20.1994 85.5662 20.3415C85.3512 20.4939 85.1898 20.6767 85.0151 20.8493C84.8404 21.022 85.1361 21.3063 85.3915 21.2251C85.5259 21.1844 85.6738 21.1438 85.8082 21.093C85.956 21.0321 86.1039 20.9407 86.2114 20.8595C86.4131 20.7173 86.6012 20.5548 86.7894 20.3923C87.1658 20.047 87.475 19.6713 87.7304 19.2651C87.8245 19.1127 87.7976 18.8995 87.5691 18.8182C87.3674 18.737 87.0852 18.7776 86.9776 18.9401H87.0045Z" fill="#BBA085"/>
<path d="M87.2974 18.605C86.3833 18.1886 85.3214 17.9347 84.246 17.9347C84.031 17.9347 83.8428 18.0667 83.8428 18.2394C83.8428 18.412 84.031 18.5237 84.246 18.544C85.1466 18.6151 86.0741 18.8081 86.8672 19.1635C87.0688 19.2549 87.3377 19.194 87.4452 19.0518C87.5528 18.9096 87.4855 18.7065 87.2974 18.6151V18.605Z" fill="#BBA085"/>
<path d="M86.7751 20.8087C85.982 21.3266 85.0008 21.6618 83.9792 21.7938C82.9576 21.9258 81.9226 21.8141 80.901 21.6618C80.6859 21.6313 80.5246 21.8547 80.7397 21.9461C81.7478 22.3422 82.971 22.3422 84.0598 22.1696C85.1486 21.9969 86.2106 21.6008 87.0574 21.022C87.2456 20.89 86.9633 20.6868 86.7751 20.8087Z" fill="#BBA085"/>
<path d="M84.9462 17.4066C83.5885 17.5793 82.3922 18.1784 81.5454 18.9807C81.1152 19.3869 80.806 19.8236 80.591 20.3111C80.4969 20.5345 80.3087 20.8696 80.4566 21.1032C80.5506 21.2556 80.8598 21.3368 81.0614 21.2962C81.2362 21.2657 81.1555 21.0728 80.9942 21.1032C80.4431 21.1946 80.4028 21.7329 80.9136 21.9055C81.1286 21.9766 81.3303 21.7329 81.1018 21.6618C80.8598 21.5805 80.8733 21.3774 81.1018 21.2962L80.9673 21.1235C80.7792 21.1946 80.8867 20.7782 80.8867 20.7681C80.927 20.6665 80.9673 20.5751 81.0211 20.4736C81.1152 20.2705 81.2362 20.0877 81.3706 19.8947C81.626 19.5291 81.9083 19.1838 82.2712 18.8792C82.9971 18.2495 83.9515 17.7925 85.0268 17.6097C85.2016 17.5793 85.1209 17.3965 84.9596 17.4168L84.9462 17.4066Z" fill="#BBA085"/>
<path d="M123.899 14.7256C126.681 17.4269 129.773 19.915 133.16 22.1797C136.548 24.4444 140.043 26.5263 143.995 28.0598C144.304 28.1816 144.532 27.8668 144.264 27.7145C140.621 25.724 136.924 23.8249 133.55 21.5704C130.176 19.3159 127.165 16.9395 124.383 14.3498C124.101 14.0858 123.617 14.4615 123.886 14.7256H123.899Z" fill="#BBA085"/>
<path d="M126.91 17.0613C131.628 18.2495 135.997 20.2806 139.72 22.7586C141.562 23.9874 143.282 25.3279 144.815 26.7801C146.347 28.2324 147.543 29.9182 149.049 31.4212C149.224 31.5938 149.64 31.5024 149.546 31.2689C148.807 29.4917 147.167 27.8769 145.662 26.4247C144.062 24.8811 142.261 23.4593 140.298 22.1695C136.44 19.6408 132.005 17.6605 127.085 16.5434C126.655 16.4418 126.48 16.9496 126.897 17.0512L126.91 17.0613Z" fill="#BBA085"/>
<path d="M126.223 16.8176C126.25 17.6504 127.069 18.6152 127.553 19.3464C128.145 20.2502 128.804 21.1337 129.543 21.9766C131.008 23.6421 132.85 24.9928 134.987 26.1607C137.245 27.3895 139.584 28.5574 142.017 29.5831C143.173 30.0706 144.356 30.5174 145.579 30.9033C146.641 31.2385 148.16 31.8173 149.329 31.7158C149.612 31.6954 149.733 31.4314 149.477 31.3095C148.966 31.0455 148.321 30.9744 147.73 30.8322C147.111 30.6799 146.507 30.4971 145.902 30.3041C144.719 29.9182 143.576 29.4714 142.474 28.9941C140.189 28.009 137.984 26.8919 135.834 25.7443C133.683 24.5968 131.761 23.2258 130.242 21.5501C129.543 20.7783 128.911 19.9557 128.346 19.1229C128.064 18.7066 127.782 18.28 127.5 17.8637C127.244 17.4676 127.043 17.0106 126.626 16.6958C126.478 16.5942 126.223 16.6653 126.223 16.8176Z" fill="#BBA085"/>
<path d="M133.469 3.71704C131.144 5.71767 128.375 7.46442 125.283 8.75417C123.751 9.39396 122.151 9.93221 120.498 10.3689C119.651 10.5822 118.804 10.7751 117.93 10.9376C117.057 11.1001 116.156 11.1509 115.322 11.3743C114.933 11.4758 114.973 11.943 115.43 11.943C116.29 11.943 117.191 11.7297 118.024 11.5672C118.925 11.3844 119.826 11.1712 120.699 10.9274C122.353 10.4704 123.966 9.90174 125.498 9.23148C128.67 7.85033 131.48 6.10358 133.792 3.96077C133.966 3.79828 133.671 3.55455 133.469 3.71704Z" fill="#BBA085"/>
<path d="M116.87 11.8921C118.147 12.0343 119.317 12.0851 120.62 11.953C121.79 11.8413 122.932 11.6281 124.062 11.364C126.454 10.8055 128.887 10.0641 130.971 9.01811C133.054 7.97209 134.613 6.6011 136.186 5.19964C137.06 4.41766 137.947 3.63569 138.821 2.84356C139.574 2.1733 140.649 1.43194 141.066 0.609348C141.133 0.477327 140.904 0.375772 140.77 0.436705C139.775 0.873391 138.996 1.76708 138.256 2.41703C137.477 3.09745 136.697 3.78802 135.917 4.46844C134.345 5.84959 132.799 7.29167 130.796 8.33769C126.884 10.3891 121.655 11.5164 116.924 11.6078C116.722 11.6078 116.668 11.8515 116.87 11.882V11.8921Z" fill="#BBA085"/>
<path d="M140.783 0.355505C135.473 1.01561 130.083 1.99054 125.325 3.97087C123.214 4.85439 121.211 5.93088 119.504 7.23078C117.797 8.53069 116.372 10.0134 114.437 11.1813C114.235 11.3031 114.45 11.557 114.679 11.4961C116.802 10.968 118.16 9.38375 119.598 8.1854C121.305 6.76363 123.335 5.6059 125.526 4.66144C130.285 2.61003 135.608 1.64525 140.877 0.650015C141.132 0.599237 141.025 0.325039 140.769 0.355505H140.783Z" fill="#BBA085"/>
<path d="M100.497 8.84551C105.04 10.4501 109.14 12.664 112.165 15.7309C114.84 18.4526 116.533 22.1492 120.66 23.8553C120.848 23.9366 121.063 23.7436 120.888 23.6218C117.205 21.154 115.391 17.7011 112.393 14.8271C109.396 11.9531 105.336 9.59702 100.725 8.41898C100.403 8.33774 100.188 8.72365 100.497 8.83536V8.84551Z" fill="#BBA085"/>
<path d="M105.014 10.5212C110.189 11.6078 114.423 14.2685 117.783 17.3457C119.652 19.0518 121.278 20.9001 122.824 22.7687C123.564 23.6624 124.262 24.5764 125.015 25.4599C125.674 26.2419 126.386 26.9528 127.448 27.4301C127.744 27.5621 128.053 27.2574 127.811 27.0746C125.808 25.5513 124.531 23.5405 123.026 21.7328C121.52 19.9252 119.827 18.0768 117.931 16.4113C114.557 13.4459 110.269 10.9883 105.202 9.99307C104.758 9.90167 104.57 10.4196 105.014 10.511V10.5212Z" fill="#BBA085"/>
<path d="M127.594 27.1051C121.854 26.3231 116.464 24.4037 112.243 21.3368C110.24 19.8845 108.533 18.2292 107.175 16.4012C105.737 14.4716 104.218 12.0648 104.312 9.8001C104.326 9.40404 103.519 9.40404 103.492 9.8001C103.358 11.6382 104.259 13.4662 105.253 15.1114C106.248 16.7566 107.404 18.1987 108.815 19.5697C111.719 22.3828 115.536 24.617 119.851 26.0286C122.284 26.8309 124.865 27.3488 127.5 27.5722C127.863 27.6027 127.943 27.1457 127.58 27.0949L127.594 27.1051Z" fill="#BBA085"/>
<path d="M85.1445 8.87598C82.9266 9.53609 81.7302 11.3336 80.6549 12.8265C79.2704 14.7357 78.1009 16.7363 76.6492 18.6151C73.9608 22.0984 69.7938 25.4498 64.0407 25.3482C63.4627 25.3482 63.4761 25.988 64.0407 26.0185C69.3771 26.3028 73.692 23.4187 76.4072 20.24C77.9396 18.4526 79.1225 16.5028 80.3592 14.5935C80.9909 13.6084 81.6496 12.6335 82.3755 11.6891C83.1013 10.7446 83.9347 9.77982 85.3192 9.33298C85.6822 9.21111 85.5343 8.75411 85.1445 8.86582V8.87598Z" fill="#BBA085"/>
<path d="M82.9943 9.39388C78.5988 11.232 74.163 13.2124 70.5202 15.8528C68.719 17.1628 67.1597 18.676 65.9634 20.3415C65.3451 21.2149 64.8208 22.1187 64.4041 23.0632C63.9874 24.0077 63.5438 24.9927 63.5304 25.9474C63.5304 26.313 64.2025 26.3637 64.3504 26.0286C64.7536 25.1248 64.9149 24.16 65.3182 23.2561C65.7214 22.3523 66.286 21.3875 66.9178 20.5142C68.1141 18.8791 69.6868 17.4269 71.4477 16.127C74.9292 13.5475 79.1499 11.689 83.2632 9.75948C83.5723 9.6173 83.3035 9.2517 82.9809 9.38372L82.9943 9.39388Z" fill="#BBA085"/>
<path d="M82.5234 9.85085C79.8753 11.7804 77.2944 13.7506 74.9421 15.8832C73.8399 16.8886 72.778 17.9042 71.7429 18.9502C70.6272 20.0876 69.4578 21.2352 68.611 22.5148C68.4765 22.728 68.8395 22.9819 69.068 22.7788C70.1837 21.7937 71.1246 20.7071 72.1462 19.6611C73.2753 18.5033 74.4313 17.3659 75.6276 16.2488C77.9128 14.1263 80.2382 12.0038 82.7653 10.0438C82.9266 9.91179 82.6712 9.72899 82.5099 9.85085H82.5234Z" fill="#BBA085"/>
<path d="M77.6042 10.3384C71.8107 11.0797 66.1651 9.66812 60.5598 8.8049C57.9118 8.39868 55.2368 8.14479 52.535 8.21588C51.2311 8.24635 49.9273 8.3479 48.6368 8.52054C47.3464 8.69319 45.8409 8.83536 44.7924 9.39392C44.5639 9.51578 44.6311 9.78998 44.9403 9.80014C46.2039 9.81029 47.5077 9.41423 48.7444 9.25174C50.1558 9.06894 51.5806 8.95723 53.0055 8.92676C55.8955 8.86583 58.7452 9.20096 61.568 9.65796C66.8641 10.511 72.3081 11.7094 77.7252 10.7141C78.0344 10.6532 77.8999 10.3181 77.5908 10.3587L77.6042 10.3384Z" fill="#BBA085"/>
<path d="M75.5327 10.7548C70.7743 12.4304 65.5319 13.6085 60.2223 13.4257C57.5608 13.3343 54.9934 12.8569 52.5201 12.1156C50.0468 11.3742 47.7213 10.247 45.2346 9.46501C44.7372 9.30252 44.4818 9.89154 44.8851 10.0947C46.0545 10.6938 47.3853 11.161 48.6488 11.6484C49.9124 12.1359 51.1221 12.5421 52.3991 12.9179C54.9531 13.6592 57.6415 14.1061 60.3836 14.167C65.7873 14.2787 71.1103 13.0601 75.7747 11.0594C76.0301 10.9477 75.8015 10.6735 75.5461 10.7649L75.5327 10.7548Z" fill="#BBA085"/>
<path d="M76.1137 10.8461C71.53 11.821 66.8925 12.1663 62.1475 11.8312C59.7549 11.6586 57.3622 11.3437 55.0233 10.9274C52.6844 10.511 50.5068 9.96259 48.2217 9.53606C47.8991 9.47512 47.6437 9.85088 47.9797 9.96259C52.308 11.4351 57.2681 12.1866 61.9862 12.4812C66.7043 12.7757 71.7451 12.5421 76.2481 11.2523C76.5707 11.1609 76.4498 10.775 76.1003 10.8563L76.1137 10.8461Z" fill="#BBA085"/>
<path d="M39.2157 16.6043C32.6426 16.6145 26.1636 16.3911 19.9668 14.5631C14.8186 13.0499 10.1408 10.6126 6.39048 7.54561C4.26666 5.79887 2.6133 3.84901 0.9465 1.85853C0.704545 1.56402 0.166868 1.81791 0.341613 2.12257C1.45729 4.05212 3.16442 5.79887 4.99252 7.37297C6.82063 8.94707 8.91757 10.3993 11.1758 11.6484C15.8805 14.2482 21.3379 15.9747 27.1045 16.6449C31.1102 17.1121 35.1831 17.1629 39.2157 16.9699C39.5249 16.9598 39.5383 16.5942 39.2157 16.5942V16.6043Z" fill="#BBA085"/>
<path d="M37.4261 16.2386C32.5601 14.4919 28.2587 12.014 23.7556 9.80006C19.2526 7.58616 14.2253 5.67692 9.1711 4.0622C7.80002 3.62551 6.42895 3.19898 5.04443 2.79276C3.57926 2.35607 2.07376 1.82799 0.541378 1.56394C0.0977946 1.49285 -0.21137 1.96001 0.218772 2.13265C1.38822 2.58965 2.69209 2.89431 3.9153 3.24976C5.21917 3.62551 6.5096 4.01142 7.80002 4.40748C10.4346 5.21993 13.0289 6.10345 15.5695 7.06823C20.4354 8.90637 24.8578 11.2117 29.455 13.4053C31.9552 14.5935 34.5226 15.7106 37.2513 16.5738C37.5067 16.655 37.6814 16.33 37.4395 16.2386H37.4261Z" fill="#BBA085"/>
</g>
<defs>
<clipPath id="clip0_2_104">
<rect width="302" height="32" fill="white"/>
</clipPath>
</defs>
</svg>
