<svg width="32" height="25" viewBox="0 0 32 25" fill="none" xmlns="http://www.w3.org/2000/svg">
<path d="M32 2.94118C30.8222 3.45588 29.5526 3.79412 28.2371 3.95588C29.5832 3.17647 30.6233 1.94118 31.1128 0.455882C29.8432 1.19118 28.4359 1.70588 26.9522 2C25.7438 0.735294 24.0459 0 22.1185 0C18.5239 0 15.587 2.82353 15.587 6.30882C15.587 6.80882 15.6482 7.29412 15.7553 7.75C10.3098 7.48529 5.4608 4.97059 2.23327 1.16176C1.6673 2.08824 1.34608 3.17647 1.34608 4.32353C1.34608 6.51471 2.49331 8.45588 4.26769 9.55882C3.18164 9.55882 2.17208 9.26471 1.2849 8.82353V8.86765C1.2849 11.9265 3.54876 14.4853 6.54685 15.0588C5.58429 15.3121 4.57376 15.3473 3.59465 15.1618C4.01011 16.4154 4.82377 17.5124 5.92125 18.2984C7.01873 19.0845 8.34485 19.5201 9.71319 19.5441C7.3937 21.3095 4.51854 22.2637 1.56023 22.25C1.04015 22.25 0.520077 22.2206 0 22.1618C2.90631 23.9559 6.36329 25 10.065 25C22.1185 25 28.7419 15.3824 28.7419 7.04412C28.7419 6.76471 28.7419 6.5 28.7266 6.22059C30.0115 5.33823 31.1128 4.22059 32 2.94118Z" fill="#B58B61"/>
</svg>
