<svg width="30" height="20" viewBox="0 0 30 20" fill="none" xmlns="http://www.w3.org/2000/svg">
<path d="M12 14.2857L19.785 10L12 5.71429V14.2857ZM29.34 3.1C29.535 3.77143 29.67 4.67143 29.76 5.81429C29.865 6.95714 29.91 7.94286 29.91 8.8L30 10C30 13.1286 29.76 15.4286 29.34 16.9C28.965 18.1857 28.095 19.0143 26.745 19.3714C26.04 19.5571 24.75 19.6857 22.77 19.7714C20.82 19.8714 19.035 19.9143 17.385 19.9143L15 20C8.715 20 4.8 19.7714 3.255 19.3714C1.905 19.0143 1.035 18.1857 0.66 16.9C0.465 16.2286 0.33 15.3286 0.24 14.1857C0.135 13.0429 0.0899999 12.0571 0.0899999 11.2L0 10C0 6.87143 0.24 4.57143 0.66 3.1C1.035 1.81429 1.905 0.985714 3.255 0.628572C3.96 0.442857 5.25 0.314286 7.23 0.228571C9.18 0.128571 10.965 0.0857142 12.615 0.0857142L15 0C21.285 0 25.2 0.228572 26.745 0.628572C28.095 0.985714 28.965 1.81429 29.34 3.1Z" fill="#B58B61"/>
</svg>
