<svg width="80" height="80" viewBox="0 0 80 80" fill="none" xmlns="http://www.w3.org/2000/svg">
<path d="M9.99967 16.6667V15C9.55765 15 9.13372 15.1756 8.82116 15.4882C8.5086 15.8007 8.33301 16.2246 8.33301 16.6667H9.99967ZM69.9997 16.6667H71.6663C71.6663 16.2246 71.4907 15.8007 71.1782 15.4882C70.8656 15.1756 70.4417 15 69.9997 15V16.6667ZM9.99967 18.3333H69.9997V15H9.99967V18.3333ZM68.333 16.6667V56.6667H71.6663V16.6667H68.333ZM63.333 61.6667H16.6663V65H63.333V61.6667ZM11.6663 56.6667V16.6667H8.33301V56.6667H11.6663ZM16.6663 61.6667C15.3403 61.6667 14.0685 61.1399 13.1308 60.2022C12.1931 59.2645 11.6663 57.9927 11.6663 56.6667H8.33301C8.33301 58.8768 9.21098 60.9964 10.7738 62.5592C12.3366 64.122 14.4562 65 16.6663 65V61.6667ZM68.333 56.6667C68.333 57.9927 67.8062 59.2645 66.8685 60.2022C65.9309 61.1399 64.6591 61.6667 63.333 61.6667V65C65.5431 65 67.6628 64.122 69.2256 62.5592C70.7884 60.9964 71.6663 58.8768 71.6663 56.6667H68.333Z" fill="#B58B61"/>
<path d="M10 16.6666L40 46.6666L70 16.6666" stroke="#B58B61" stroke-linecap="round" stroke-linejoin="round"/>
</svg>
