<svg width="96" height="96" viewBox="0 0 96 96" fill="none" xmlns="http://www.w3.org/2000/svg">
<path d="M48 81.6L46.464 79.872C45.504 78.912 23.04 52.416 23.04 36.48C23.04 22.656 34.176 11.52 48 11.52C61.824 11.52 72.96 22.656 72.96 36.48C72.96 52.416 50.496 78.912 49.536 80.064L48 81.6ZM48 15.36C36.288 15.36 26.88 24.768 26.88 36.48C26.88 48.768 43.008 69.504 48 75.648C52.992 69.504 69.12 48.768 69.12 36.48C69.12 24.768 59.712 15.36 48 15.36Z" fill="#B58B61"/>
<path d="M48.0004 46.0799C42.6244 46.0799 38.4004 41.8559 38.4004 36.4799C38.4004 31.1039 42.6244 26.8799 48.0004 26.8799C53.3764 26.8799 57.6004 31.1039 57.6004 36.4799C57.6004 41.8559 53.3764 46.0799 48.0004 46.0799ZM48.0004 30.7199C44.7364 30.7199 42.2404 33.2159 42.2404 36.4799C42.2404 39.7439 44.7364 42.2399 48.0004 42.2399C51.2644 42.2399 53.7604 39.7439 53.7604 36.4799C53.7604 33.2159 51.2644 30.7199 48.0004 30.7199Z" fill="#B58B61"/>
</svg>
