<svg width="87" height="87" viewBox="0 0 87 87" fill="none" xmlns="http://www.w3.org/2000/svg">
<g clip-path="url(#clip0_2_807)">
<path d="M60.4167 9.66675H26.5833C25.3015 9.66675 24.0721 10.176 23.1657 11.0824C22.2592 11.9888 21.75 13.2182 21.75 14.5001V72.5001C21.75 73.782 22.2592 75.0113 23.1657 75.9178C24.0721 76.8242 25.3015 77.3334 26.5833 77.3334H60.4167C61.6985 77.3334 62.9279 76.8242 63.8344 75.9178C64.7408 75.0113 65.25 73.782 65.25 72.5001V14.5001C65.25 13.2182 64.7408 11.9888 63.8344 11.0824C62.9279 10.176 61.6985 9.66675 60.4167 9.66675ZM45.9167 72.5001H41.0833V67.6667H45.9167V72.5001ZM26.5833 62.8334V14.5001H60.4167V62.8334H26.5833Z" fill="#B58B61"/>
</g>
<defs>
<clipPath id="clip0_2_807">
<rect width="87" height="87" fill="white"/>
</clipPath>
</defs>
</svg>
